<svg width="232" height="232" viewBox="0 0 232 232" fill="none" xmlns="http://www.w3.org/2000/svg">
<path fill-rule="evenodd" clip-rule="evenodd" d="M156.097 113.558L157.607 103.615C157.699 103.01 157.23 102.465 156.618 102.465H156.331C156.331 102.465 156.331 49.5277 151.615 49.6238C149.017 49.6767 148.18 65.7067 147.953 80.0948C147.029 68.103 145.695 53.6085 144.009 42.768C152.499 37.4382 161.891 35.9758 173.743 38.4042C202.801 44.358 204.941 84.006 202.039 101.378C196.698 133.351 183.385 156.935 155.968 179.915C128.972 202.541 108.808 208.868 80.8753 207.059C62.7131 205.882 48.1483 202.217 39.1572 186.429C32.7731 175.219 33.22 164.906 37.8404 155.742C43.4347 158.272 50.3748 158.175 62.0224 156.028C61.5289 155.552 61.0419 155.069 60.5605 154.58C65.6159 145.612 67.6744 139.858 67.2254 135.258C71.8918 134.996 76.714 135.402 81.5808 135.905C82.8752 147.176 84.7554 157.324 87.9651 171.237C88.0627 171.66 88.4302 171.978 88.8627 172.014C110.807 173.85 123.445 173.981 145.369 172.025C145.835 171.984 146.217 171.616 146.278 171.152C149.301 148.123 150.628 135.578 152.34 114.408H155.108C155.602 114.408 156.023 114.047 156.097 113.558ZM54.9137 138.086C53.2679 138.839 51.6599 139.766 50.096 140.902C50.0813 141.235 50.0628 141.573 50.0403 141.913C49.7403 141.815 49.4448 141.715 49.1538 141.615C47.9706 142.549 46.8141 143.609 45.6869 144.808C45.3553 145.161 45.0295 145.517 44.7095 145.874C47.6946 145.778 50.6945 146.033 53.668 146.808C54.7874 148.256 55.905 149.638 57.0324 150.961C55.7978 145.778 55.0608 141.657 54.9137 138.086ZM134.791 50.6194C133.924 51.6853 133.167 52.7887 132.508 53.9256C133.69 65.9204 134.327 81.1738 134.646 91.349C134.435 80.6855 134.263 64.2391 134.791 50.6194ZM73.7444 139.073C67.9441 148.285 66.7657 153.602 69.2291 162.181C70.0667 162.811 70.925 163.43 71.8062 164.038C59.6085 160.824 53.1888 161.283 43.5095 166.309C42.9469 166.602 42.805 167.34 43.258 167.783C51.8812 176.226 77.7658 180.08 71.8062 164.038C72.7466 164.688 73.713 165.326 74.7083 165.953C81.5396 155.008 80.0309 148.969 75.4702 139.184C75.1405 138.476 74.1603 138.412 73.7444 139.073Z" fill="#B2AB73"/>
<path d="M79.7871 114.408H76.6563C76.162 114.408 75.7419 114.047 75.6677 113.558L74.1576 103.615C74.0657 103.009 74.5341 102.464 75.1462 102.464H79.0616M79.7871 114.408C81.152 136.747 82.909 149.319 87.9652 171.237C88.0628 171.66 88.4303 171.978 88.8627 172.014C110.807 173.849 123.445 173.981 145.37 172.025C145.835 171.983 146.218 171.616 146.278 171.152C149.301 148.123 150.628 135.578 152.34 114.408M79.7871 114.408H152.34M152.34 114.408H155.108C155.603 114.408 156.023 114.047 156.097 113.558L157.607 103.615C157.699 103.009 157.23 102.464 156.618 102.464H156.331M79.0616 102.464C79.0616 102.464 76.885 42.7471 84.5031 42.747C92.1212 42.747 92.4839 102.464 92.4839 102.464M79.0616 102.464H92.4839M92.4839 102.464C92.4839 102.464 90.6701 28.6322 99.0137 28.6322C107.357 28.6322 106.269 102.464 106.269 102.464M92.4839 102.464H106.269M106.269 102.464C106.269 102.464 104.455 25.375 113.887 25.375C123.319 25.375 122.231 102.464 122.231 102.464M106.269 102.464H122.231M122.231 102.464C122.231 102.464 122.231 35.5087 128.035 35.5087C133.839 35.5087 134.927 102.464 134.927 102.464M122.231 102.464H134.927M134.927 102.464C134.927 102.464 132.388 26.8227 138.918 26.8227C145.448 26.8227 149.438 102.464 149.438 102.464M134.927 102.464H147.987M149.438 102.464H147.987M149.438 102.464H156.331M147.987 102.464C147.987 102.464 146.899 49.7197 151.615 49.6236C156.331 49.5275 156.331 102.464 156.331 102.464M95.0233 154.58C95.0746 155.716 95.0868 156.306 95.0233 157.114M99.0137 162.18C100.02 162.239 101.001 162.014 103.004 161.457M141.094 123.817C141.21 125.368 141.242 126.279 141.094 128.16M133.114 128.16C132.813 130.993 132.702 132.389 133.114 132.865M139.281 136.846C139.254 137.956 139.246 138.815 139.281 141.913M50.0404 141.913C35.3606 137.091 31.5272 130.472 29.8811 115.216C29.8034 114.496 30.5 113.944 31.1801 114.192C45.1578 119.292 50.9784 127.692 50.0404 141.913ZM50.0404 141.913C52.3988 145.219 54.6944 148.216 57.0324 150.961M106.995 179.915C93.2215 175.629 82.9718 171.16 74.7084 165.953M57.0324 150.961C53.957 138.048 53.9696 131.729 58.4957 124.094C58.8093 123.565 59.5279 123.461 59.9832 123.874C68.9237 131.984 70.2733 137.35 60.5606 154.58M57.0324 150.961C58.4278 152.599 59.1127 153.11 60.5606 154.58M60.5606 154.58C61.042 155.069 61.529 155.552 62.0224 156.028M53.668 146.808C45.8951 144.781 37.9419 146.315 30.5441 148.355C29.8307 148.552 29.5831 149.433 30.0966 149.966C37.707 157.864 44.5959 159.239 62.0224 156.028M62.0224 156.028C64.2712 158.199 66.652 160.242 69.2292 162.18M69.2292 162.18C66.7658 153.602 67.9442 148.285 73.7445 139.073C74.1603 138.412 75.1406 138.476 75.4703 139.183C80.031 148.969 81.5397 155.007 74.7084 165.953M69.2292 162.18C70.0667 162.811 70.925 163.429 71.8063 164.038M74.7084 165.953C73.7131 165.326 72.7466 164.688 71.8063 164.038M71.8063 164.038C59.6086 160.824 53.1889 161.283 43.5096 166.309C42.947 166.601 42.8051 167.34 43.2581 167.783C51.8813 176.226 77.7658 180.08 71.8063 164.038Z" stroke="#231E54" stroke-width="4" stroke-linecap="round"/>
</svg>
