<svg width="261" height="261" viewBox="0 0 261 261" fill="none" xmlns="http://www.w3.org/2000/svg">
<path fill-rule="evenodd" clip-rule="evenodd" d="M31.9376 78.3C26.9948 88.0874 21.6223 111.944 28.6753 131.724C30.0563 135.596 31.7455 139.096 33.6504 142.281C36.8253 130.151 40.607 117.537 44.4516 108.886C48.0819 100.718 82.6273 87.7271 85.8133 86.5435C85.9836 86.4803 86.1427 86.4747 86.3211 86.509L103.177 89.7504C103.177 89.7504 111.741 83.6017 115.411 82.3783C117.343 81.7342 122.091 81.9725 128.408 82.7746C130.859 75.7859 131.818 69.4157 130.5 65.658C128.072 58.7355 127.407 61.0008 126.337 64.6509C125.704 66.8066 124.93 69.4453 123.567 70.9595C119.784 75.1632 113.78 74.222 111.333 68.5126C109.177 63.4821 113.372 56.677 114.188 55.4626C117.2 50.9766 125.228 48.8804 133.355 51.3845C143.124 54.3946 146.759 63.2208 147.628 73.4064C148.005 77.8203 147.657 81.9428 146.769 85.7741C164.322 89.0833 184.383 93.8031 194.119 96.6519C212.062 101.902 215.325 150.483 192.08 146.201V184.883C192.08 185.289 191.834 185.655 191.457 185.809L150.096 202.684C169.23 205.791 192.249 203.59 211.783 185.962C226.107 173.036 233.532 161.971 235.028 142.734C236.726 120.896 228.106 100.73 219.939 84.825C208.668 62.8746 190.577 51.4093 175.08 44.4516C159.583 37.4938 134.707 32.625 111.869 32.625C89.0312 32.625 69.0485 42.0048 57.222 49.3453C45.3955 56.6859 36.8804 68.5126 31.9376 78.3Z" fill="#FBAD36"/>
<path d="M141.103 206.354L191.457 185.809C191.834 185.655 192.08 185.289 192.08 184.883V146.201M141.103 206.354C142.734 189.633 146.893 141.13 156.192 132.132C168.834 119.897 192.08 106.847 192.08 106.847M141.103 206.354C128.556 205.802 117.553 204.974 107.369 203.696M192.08 106.847L174.136 103.397M192.08 106.847V146.201M103.177 89.7505L86.3211 86.5091C86.1427 86.4748 85.9836 86.4804 85.8133 86.5436C82.6273 87.7272 48.0819 100.718 44.4516 108.886C35.3842 129.288 26.6668 171.74 25.4331 177.877C25.3419 178.33 25.5812 178.758 26.0023 178.95C33.2868 182.269 40.0693 185.196 46.5484 187.778M103.177 89.7505C103.177 89.7505 111.741 83.6018 115.411 82.3784C117.343 81.7343 122.091 81.9726 128.408 82.7747M103.177 89.7505C103.177 89.7505 90.7768 93.7188 79.1156 100.404M103.177 89.7505L123.601 93.6782M174.136 103.397C174.136 103.397 147.901 114.766 137.025 128.461C135.51 130.369 134.125 132.885 132.862 135.802M174.136 103.397C178.936 96.8046 182.448 94.191 194.119 96.652M174.136 103.397L142.187 97.2526M194.119 96.652C212.062 101.902 215.325 150.483 192.08 146.201M194.119 96.652C184.383 93.8032 164.322 89.0834 146.769 85.7742M79.1156 100.404C73.1817 103.806 67.439 107.912 63.6188 112.557C55.8274 122.029 50.8967 160.722 50.2368 166.159C50.1884 166.558 50.3881 166.924 50.7384 167.121C51.394 167.489 52.0444 167.85 52.6903 168.204M79.1156 100.404L76.6688 132.396M132.862 135.802C125.856 151.982 122.624 180.517 122.036 186.19C121.978 186.746 121.48 187.135 120.924 187.073C118.67 186.817 116.494 186.56 114.388 186.299M132.862 135.802C126.54 126.045 117.662 124.893 113.603 124.101C112.804 123.945 112.763 123.101 113.493 122.738C118.638 120.175 133.863 111.68 142.187 97.2526M117.042 178.622C117.042 178.622 116.062 181.689 114.388 186.299M94.6125 139.88C96.545 142.655 97.1832 144.434 97.4672 148.036M89.7187 146.405C93.7482 143.689 96.2679 142.655 101.137 141.511M137.025 187.186C137.67 189.686 137.516 190.872 137.025 192.895M126.83 199.42C128.298 198.874 129.554 198.835 132.862 199.42M178.622 170.058C178.558 171.706 178.548 172.545 178.622 173.728M184.331 164.756C184.23 166.19 184.216 166.993 184.331 168.427M184.331 175.36C184.538 177.342 184.489 178.066 184.331 178.622M35.8875 165.164C35.3928 166.052 35.0248 167.261 34.2563 170.466M38.7422 173.728C38.1914 175.931 37.8232 176.622 37.1109 177.399M76.6688 132.396C84.0534 125.43 92.8434 119.626 103.177 115.819C110.689 113.051 118.247 103.766 123.601 93.6782M76.6688 132.396C65.7542 142.691 57.9097 155.525 52.6903 168.204M52.6903 168.204C49.9315 174.904 47.9061 181.562 46.5484 187.778M78.9265 179.457C80.9382 175.801 82.6577 173.522 84.0094 173.728C85.3938 173.939 85.6885 176.867 85.469 181.267M78.9265 179.457C81.0613 180.107 83.2347 180.707 85.469 181.267M78.9265 179.457C76.5682 183.744 73.8084 189.925 70.7687 196.216M85.469 181.267C85.2265 186.127 84.3564 192.786 83.6345 199.565M114.388 186.299C112.674 191.023 110.231 197.368 107.369 203.696M46.5484 187.778C42.569 205.995 44.3245 220.42 50.1609 221.035C57.5005 221.807 64.6936 208.79 70.7687 196.216M70.7687 196.216C75.056 197.47 79.3207 198.581 83.6345 199.565M83.6345 199.565C82.1289 213.705 81.2677 228.375 88.0875 228.375C94.578 228.375 101.775 216.068 107.369 203.696M174.136 55.4627C174.136 55.4627 184.331 47.7142 187.594 55.4627C190.856 63.2111 176.175 68.5127 176.175 68.5127M176.175 75.0377V76.6689M128.408 82.7747C130.859 75.786 131.818 69.4158 130.5 65.6581C126.638 54.6472 127.237 66.8815 123.567 70.9596C119.784 75.1633 113.78 74.2221 111.333 68.5127C109.177 63.4822 113.372 56.6771 114.187 55.4627C117.2 50.9767 125.228 48.8805 133.355 51.3846C143.124 54.3947 146.759 63.2209 147.628 73.4065C148.005 77.8204 147.657 81.9429 146.769 85.7742M128.408 82.7747C127.158 86.3365 125.521 90.059 123.601 93.6782M146.769 85.7742C145.803 89.9456 144.196 93.7718 142.187 97.2526M183.108 133.667V139.193C183.108 139.607 182.853 139.978 182.467 140.126L163.261 147.513C162.606 147.765 161.902 147.282 161.902 146.58V142.162C161.902 141.766 162.135 141.408 162.497 141.248L181.703 132.753C182.364 132.46 183.108 132.944 183.108 133.667Z" stroke="#231E54" stroke-width="4" stroke-linecap="round"/>
</svg>
