<svg width="238" height="238" viewBox="0 0 238 238" fill="none" xmlns="http://www.w3.org/2000/svg">
<path fill-rule="evenodd" clip-rule="evenodd" d="M127.291 4.87537C105.679 1.80536 89.353 16.2081 81.1844 36.4013C77.6654 45.1002 74.6186 55.9186 72.3807 67.9939C77.6826 66.496 88.1736 64.1437 93.8264 63.4765C103.305 58.7544 116.007 51.6085 116.533 50.9198C117.182 51.771 129.968 61.4036 138.446 67.1854C143.6 68.1022 155.969 71.5383 157.781 72.3779C157.781 72.3779 160.713 73.4883 164.993 75.1455C166.349 75.6706 167.84 76.2507 169.416 76.8676C168.56 75.6557 167.74 74.3884 166.962 73.0549C165.775 71.0183 164.689 68.8273 163.73 66.4436C160.479 58.3587 159.916 50.1876 159.394 42.6041C158.827 34.361 158.308 26.8123 154.434 20.8238C147.765 10.512 139.47 6.6055 127.291 4.87537ZM196.738 105.419C196.291 110.989 195.807 116.906 195.457 121.191C195.19 124.454 195.001 126.771 194.963 127.27C194.877 128.422 184.367 126.552 174.521 124.8C166.515 123.375 158.948 122.029 157.781 122.448C156.578 122.881 158.391 137.794 160.434 154.594C162.812 174.161 165.502 196.288 164.102 201.078C162.54 206.417 122.853 204.817 90.7772 200.761C94.0893 205.706 97.8213 210.291 102.007 214.43C117.689 229.94 137.084 236.052 158.896 232.604C183.275 228.749 193.193 205.101 200.033 188.791L200.169 188.467C207.947 169.923 211.618 144.83 204.259 120.223C202.491 114.31 199.859 109.553 196.738 105.419ZM116.508 50.8661C116.554 50.8639 116.561 50.8823 116.533 50.9198C116.512 50.8932 116.504 50.8752 116.508 50.8661Z" fill="#FBAD36"/>
<path d="M69.2856 69.0399C104.053 76.8947 123.446 78.1562 157.78 72.378M69.2856 69.0399C69.2856 69.0399 32.1029 86.4719 31.3592 89.439C30.6156 92.4062 29.3524 118.687 29.8719 120.965C30.3914 123.243 60.3616 120.989 62.9645 122.449C65.5675 123.908 47.7196 181.791 50.3224 190.693C52.9253 199.594 161.499 209.979 164.102 201.078C166.704 192.176 155.178 123.384 157.78 122.449C160.383 121.513 194.807 129.358 194.963 127.27C195.119 125.182 197.938 91.2935 197.938 89.439C197.938 87.5846 157.78 72.378 157.78 72.378M69.2856 69.0399C70.9824 68.0519 86.4847 64.3431 93.8262 63.4765M157.78 72.378C155.969 71.5384 143.6 68.1022 138.445 67.1854M113.533 34.176C109.844 31.8424 108.333 28.0052 109.443 23.791C110.573 19.5029 113.954 17.2738 118.367 16.744C123.609 16.1147 127.401 19.1485 129.893 23.791C132.224 28.1322 131.292 31.6785 129.893 36.4013C127.71 43.7739 116.508 50.8662 116.508 50.8662M116.508 50.8662C117.399 50.8235 103.82 58.4974 93.8262 63.4765M116.508 50.8662C116.38 51.1664 129.703 61.2233 138.445 67.1854M93.8262 63.4765C110.93 63.4765 122.085 64.9601 138.445 67.1854M152.203 82.3921C152.203 82.3921 163.519 78.3109 167.448 72.378C169.828 68.7847 167.73 64.6008 171.166 61.9929C173.773 60.0141 179.346 60.1385 179.346 60.1385M179.346 60.1385C179.346 60.1385 178.857 65.7019 179.346 66.8146C179.836 67.9272 194.147 68.669 194.963 67.5563C195.779 66.4437 196.079 55.6878 195.335 54.946C194.591 54.2042 181.206 54.2042 180.09 54.946C178.975 55.6878 179.346 60.1385 179.346 60.1385ZM82.2996 107.613H87.1333M91.9671 107.613H87.1333M87.1333 107.613L83.7869 124.674M83.7869 124.674H78.5813M83.7869 124.674H90.1079M171.166 97.2278C171.005 101.054 170.994 102.6 171.166 103.904M182.693 93.8897C182.68 95.7688 182.51 97.1557 181.577 100.937M181.577 108.355C181.734 110.527 181.708 111.745 181.577 113.918M62.9645 177.712C63.1883 180.029 63.1989 181.329 62.9645 183.646M66.6828 186.984C68.5861 187.444 69.7269 187.428 71.8884 186.984M85.2742 149.153C85.2742 149.153 81.3777 142.549 77.4658 142.848C73.8811 143.121 72.3138 145.592 71.8884 149.153C71.3405 153.739 79.6968 155.087 79.6968 156.942C79.6968 158.425 73.0737 159.555 73.0039 163.989C72.9426 167.885 74.6841 170.016 78.5813 170.294C83.7869 170.665 88.6206 162.505 88.6206 162.505L123.944 165.843C123.944 165.843 130.265 172.148 134.355 172.148C138.446 172.148 141.766 167.381 140.305 163.989C138.843 160.596 132.868 160.65 132.868 159.167C132.868 157.683 142.152 156.445 141.048 151.749C140.156 147.952 137.891 146.697 133.984 146.557C129.553 146.398 126.175 152.491 126.175 152.491L85.2742 149.153ZM120.97 116.514C122.236 116.725 126.322 109.327 130.637 111.322C133.878 112.82 134.026 115.877 133.24 117.627C130.54 123.638 121.512 130.659 121.341 130.608C121.171 130.557 111.188 119.368 109.815 117.627C108.064 115.407 108.829 111.005 112.418 110.209C115.764 109.467 119.703 116.304 120.97 116.514Z" stroke="#231E54" stroke-width="4" stroke-linecap="round"/>
</svg>
