<svg width="281" height="279" viewBox="0 0 281 279" fill="none" xmlns="http://www.w3.org/2000/svg">
<path fill-rule="evenodd" clip-rule="evenodd" d="M47.3387 74.0941C27.2067 81.7805 10.5157 100.172 12.3258 122.389C13.7228 139.538 21.7181 148.708 36.9388 153.333V125.902C36.9388 125.726 36.9807 125.56 37.0707 125.408C45.7791 110.731 71.4505 98.7394 101.852 91.551C98.7637 83.9509 93.7468 78.6933 85.8183 74.0941C72.4507 66.3398 56.3519 70.6529 47.3387 74.0941ZM223.068 185.409C229.972 180.73 235.655 175.346 239.737 169.243C242.454 171.678 244.971 172.918 248.057 173.221C249.132 173.327 250.277 173.319 251.523 173.207C260.228 172.431 265.032 164.565 266.083 155.547C266.4 152.833 266.269 149.984 265.728 147.258C264.158 139.358 259.136 132.48 251.523 132.841C246.84 133.063 243.797 134.584 240.705 138.247L241.464 113.929C241.468 113.801 241.447 113.677 241.402 113.557C238.314 105.32 231.328 98.995 221.709 94.3624C229.362 87.977 238.407 84.766 249.443 86.3481C268.523 89.0835 279.256 114.1 279.256 132.12C279.256 150.141 271.63 166.94 264.35 173.568C253.624 183.333 240.083 189.426 229.337 187.624C227.207 187.267 225.107 186.505 223.068 185.409Z" fill="#E95B47"/>
<path d="M239.737 169.243C208.981 215.229 87.2876 220.389 37.4131 190.791C37.1118 190.612 36.9387 190.293 36.9387 189.943V181.857M239.737 169.243C239.854 165.47 239.956 162.213 240.052 159.151M239.737 169.243C242.454 171.678 244.971 172.918 248.057 173.221M49.4186 146.897C51.4425 147.896 53.4028 148.83 55.3118 149.702M231.417 130.679C229.838 132.821 228.48 134.346 226.91 135.602M55.3118 149.702C76.5724 159.42 91.4868 161.538 117.359 160.631C117.925 160.611 118.405 161.064 118.405 161.631V191.792C118.405 192.294 118.771 192.718 119.27 192.779C155.522 197.23 204.301 186.174 220.741 169.526C220.923 169.342 221.017 169.099 221.017 168.84V139.622C221.017 139.225 221.252 138.866 221.614 138.702C223.796 137.714 225.445 136.775 226.91 135.602M55.3118 149.702C61.0327 136.745 69.9193 129.651 78.8849 133.084M83.3916 135.725C81.8969 134.533 80.3898 133.66 78.8849 133.084M78.8849 133.084C90.1979 120.96 104.224 117.342 114.591 124.768M120.138 130.318C118.456 128.045 116.592 126.201 114.591 124.768M114.591 124.768C129.091 109.215 147.926 106.918 154.046 118.785M155.844 124.768C155.54 122.481 154.924 120.487 154.046 118.785M154.046 118.785C168.823 113.33 184.764 116.575 189.033 127.435M189.817 137.166C190.449 133.443 190.118 130.194 189.033 127.435M189.033 127.435C206.096 119.048 223.097 121.308 226.91 135.602M132.271 164.558C138.925 159.894 146.825 159.209 152.877 161.674M162.431 177.172C162.945 169.509 158.795 164.085 152.877 161.674M152.877 161.674C163.357 147.803 182.19 149.702 182.19 161.674M43.5253 178.614V184.38M49.4186 172.847V177.172M53.2319 186.543V190.507M98.9914 168.883H104.191M110.085 168.883V173.928M221.017 104.369V108.694M228.99 110.856V116.262M36.9387 168.883V125.902C36.9387 125.726 36.9807 125.56 37.0706 125.408C61.7554 83.8039 222.736 63.781 241.402 113.557C241.447 113.677 241.468 113.801 241.464 113.929C241.409 115.689 240.984 129.309 240.705 138.247M36.9387 168.883L19.8674 173.755C19.4958 173.861 19.0979 173.746 18.8299 173.467C17.5681 172.156 13.7588 168.526 10.5923 168.883C6.30855 169.365 2.19416 172.765 2.96574 177.172C3.47367 180.073 7.60141 181.18 10.501 181.601C11.4396 181.737 11.8913 183.106 11.2268 183.782C9.5386 185.502 7.51393 188.111 7.81902 190.507C8.32209 194.459 11.2728 197.101 15.0989 197.355C19.5403 197.65 22.2867 189.255 22.9274 187.061C23.0222 186.737 23.2654 186.477 23.5857 186.369L36.9387 181.857M36.9387 168.883V181.857M240.705 138.247C243.797 134.585 246.84 133.063 251.523 132.841C259.136 132.48 264.158 139.358 265.728 147.258M240.705 138.247C240.444 146.579 240.263 152.391 240.052 159.151M240.052 159.151C240.052 159.151 245.366 157.497 248.057 159.151C252.605 161.949 248.057 173.221 248.057 173.221M248.057 173.221C249.132 173.327 250.277 173.319 251.523 173.207C260.228 172.431 265.032 164.565 266.083 155.547C266.4 152.833 266.269 149.984 265.728 147.258M259.496 136.445C259.496 136.445 249.097 142.567 249.097 150.141C249.097 153.745 250.841 156.745 254.297 155.547C257.416 154.466 262.587 145.739 265.728 147.258" stroke="#231E54" stroke-width="4" stroke-linecap="round"/>
</svg>
