<svg width="269" height="269" viewBox="0 0 269 269" fill="none" xmlns="http://www.w3.org/2000/svg">
<path fill-rule="evenodd" clip-rule="evenodd" d="M32.9166 75.6562C27.8223 85.7437 22.285 110.331 29.5542 130.717C33.2009 140.944 38.9324 148.644 45.1468 154.838L45.8733 118.949L46.3668 94.5704L77.8902 78.5985L103.078 86.1641C105.888 80.487 109.044 74.8983 112.481 69.7719C110.811 68.005 109.419 66.3197 108.694 65.4147C108.38 65.0236 108.417 64.4635 108.772 64.1091L121.684 51.1968C121.898 50.9825 122.197 50.8768 122.495 50.9278C123.484 51.0965 125.839 51.6157 127.796 52.9594C127.796 52.9594 142.618 49.5969 152.706 52.9594C154.19 53.4543 155.511 53.9952 156.689 54.6407C156.689 54.6407 166.576 52.5391 170.359 53.3798C173.47 54.0711 174.587 56.9423 174.982 60.1048C175.403 63.4673 174.982 72.2937 174.982 72.2937C175.105 72.2938 175.228 72.2938 175.35 72.2938C176.522 72.2938 177.681 72.2938 178.964 72.3525C180.154 72.407 181.452 72.5119 182.968 72.7141C186.42 73.1743 188.17 75.1841 188.853 78.5985C189.212 80.3938 188.514 82.9728 187.333 85.7438C184.366 92.7041 178.345 100.875 178.345 100.875L220.796 110.542V134.92V184.295C233.913 171.931 240.781 160.73 242.232 142.066C243.982 119.558 235.098 98.7734 226.681 82.3812C215.064 59.758 196.418 47.9413 180.446 40.7703C164.474 33.5993 138.836 28.5812 115.298 28.5812C91.7602 28.5812 71.1649 38.2485 58.976 45.8141C46.787 53.3796 38.0109 65.5688 32.9166 75.6562Z" fill="#B2AB73"/>
<path d="M77.8902 78.5984L46.3668 94.5703M77.8902 78.5984L103.078 86.164M77.8902 78.5984V104.089M46.3668 94.5703L45.8733 118.948M46.3668 94.5703L77.8902 104.089M188.432 240.419L45.0006 198.602C44.5667 198.475 44.2716 198.074 44.2807 197.622L44.8523 169.386M188.432 240.419L220.391 216.761C220.646 216.572 220.796 216.274 220.796 215.957V189.981M188.432 240.419V209.736M220.796 110.542L178.345 100.875M220.796 110.542L188.432 128.195M220.796 110.542V134.92M178.345 100.875C178.345 100.875 184.366 92.704 187.333 85.7437M178.345 100.875C172.647 102.342 168.837 102.654 165.736 101.651M188.432 128.195V152.994M188.432 128.195L163.214 123.332M188.432 152.994L220.796 134.92M188.432 152.994V209.736M220.796 134.92V189.981M188.432 209.736L220.796 189.981M188.432 209.736L119.293 190.306M127.796 52.9594C125.839 51.6156 123.484 51.0964 122.495 50.9277C122.197 50.8767 121.898 50.9825 121.684 51.1968L108.772 64.109C108.417 64.4634 108.38 65.0236 108.694 65.4146C109.419 66.3196 110.811 68.0049 112.481 69.7719M127.796 52.9594C128.463 53.4176 129.084 53.9718 129.589 54.6406C133.881 60.3296 128.328 71.0328 126.646 73.1344C124.555 75.7486 121.065 76.613 118.24 74.8156C116.315 73.5902 114.243 71.6356 112.481 69.7719M127.796 52.9594C127.796 52.9594 142.618 49.5969 152.706 52.9594C154.19 53.4542 155.511 53.9951 156.689 54.6406M158.59 96.0852C160.156 98.0038 161.625 99.4522 163.214 100.46M164.895 92.0484C159.537 96.1528 155.206 98.1015 148.503 99.0047M140.517 99.614C143.56 99.5061 146.174 99.3185 148.503 99.0047M178.964 72.3524C180.154 72.4069 181.452 72.5118 182.968 72.714C186.42 73.1742 188.17 75.184 188.853 78.5984C189.212 80.3937 188.514 82.9728 187.333 85.7437M178.964 72.3524C178.749 79.5678 180.65 82.4671 187.333 85.7437M178.964 72.3524C177.547 72.2876 176.282 72.2944 174.982 72.2937M148.503 99.0047C148.503 99.0047 147.141 106.185 151.025 108.441C156.167 111.427 163.214 100.46 163.214 100.46M163.214 100.46C164.014 100.968 164.846 101.363 165.736 101.651M112.481 69.7719C104.373 81.865 97.8293 96.5309 93.6956 108.861M165.736 101.651C165.736 101.651 166.996 118.528 165.736 122.311C165.337 123.505 164.374 123.539 163.214 123.332M163.214 123.332C161.215 122.976 158.629 121.908 157.329 124.833C156.217 127.336 152.736 136.739 147.843 144.503M93.6956 108.861C90.7852 117.542 89.0696 125.065 88.8438 129.717M93.6956 108.861L77.8902 104.089M45.8733 118.948L44.8523 169.386M45.8733 118.948L79.9918 127.499M188.432 154.675L147.843 144.503M147.843 144.503C145.717 147.876 143.325 150.939 140.744 152.994M127.307 139.357C128.126 128.805 131.727 116.795 132.111 115.586C132.481 114.419 117.82 112.223 116.139 113.905C115.157 114.886 110.021 125.179 104.913 133.744M127.307 139.357L104.913 133.744M127.307 139.357C126.933 144.175 127.14 148.69 128.497 151.733M104.913 133.744C101.271 139.85 97.6425 145.078 95.5433 145.428C92.4549 145.943 90.6273 144.251 89.6743 140.45M88.8438 129.717C88.8269 130.067 88.8183 130.401 88.8183 130.717C88.8183 134.791 89.071 138.043 89.6743 140.45M88.8438 129.717L79.9918 127.499M44.8523 169.386L73.289 177.377M79.9918 127.499C71.2729 147.56 69.9223 165.379 73.289 177.377M128.497 151.733C129.407 153.772 130.834 155.151 132.951 155.516C135.674 155.985 138.294 154.945 140.744 152.994M128.497 151.733C120.676 168.736 112.603 179.901 105.084 186.313M89.6743 140.45C82.7857 156.651 80.9677 170.065 82.4984 179.966M140.744 152.994C134.848 170.692 127.158 182.901 119.293 190.306M73.289 177.377C77.7232 193.18 90.3409 198.884 105.084 186.313M82.4984 179.966L105.084 186.313M82.4984 179.966C85.6361 200.261 102.845 205.794 119.293 190.306M52.2511 158.878V162.661M50.9902 188.3V192.923M180.867 161.82V166.023M173.721 170.227V174.85M180.867 174.85V179.053M211.129 208.895L214.912 206.794M208.607 217.302L211.97 215.62M142.618 68.5109V75.2359M152.706 68.5109V75.2359M203.564 73.975C210.676 67.5115 214.4 64.4985 219.536 62.6265M209.868 82.3812C217.862 81.4878 221.715 81.2358 226.681 81.5406M207.346 92.889C214.122 93.2477 217.572 94.0283 223.318 96.0852M156.689 54.6406C159.372 56.1103 161.319 58.1219 162.793 61.3656C164.895 65.989 162.593 71.2705 167.417 71.8734C170.597 72.271 172.837 72.2925 174.982 72.2937M156.689 54.6406C156.689 54.6406 166.576 52.539 170.359 53.3797C173.47 54.071 174.587 56.9422 174.982 60.1047C175.403 63.4672 174.982 72.2937 174.982 72.2937" stroke="#231E54" stroke-width="4" stroke-linecap="round"/>
</svg>
