<svg width="267" height="267" viewBox="0 0 267 267" fill="none" xmlns="http://www.w3.org/2000/svg">
<path fill-rule="evenodd" clip-rule="evenodd" d="M65.102 52.1524C42.7167 59.438 25.9179 76.1877 25.8673 99.7228C25.8457 109.774 28.5739 117.505 33.4754 123.256C41.4266 101.287 78.4683 77.4948 117.137 64.1533C116.533 63.3347 115.884 62.5332 115.191 61.75C106.689 52.142 85.666 45.4596 65.102 52.1524ZM123.311 79.5333C85.824 91.9208 54.5007 115.638 46.8316 132.568C52.6765 134.958 59.5476 136.339 67.19 136.861C92.1079 138.564 111.573 125.659 120.2 102.226C123.123 94.2856 124.249 86.6034 123.311 79.5333ZM149.43 119.227C149.959 113.784 152.121 107.938 158.6 101.392C170.088 89.7846 184.543 82.0499 198.881 82.9115C196.583 86.0091 193.705 89.1476 190.346 92.2803C178.833 101.715 172.664 105.987 161.963 112.53C157.938 114.841 153.743 117.081 149.43 119.227ZM142.844 150.917C144.26 151.372 145.594 151.494 146.519 151.299C149.023 150.772 152.347 142.119 151.321 139.616C179.001 127.105 201.714 109.043 214.303 87.8818C214.365 87.7768 214.407 87.6629 214.427 87.5458C215.161 87.959 215.892 88.4013 216.618 88.8734C230.986 98.2077 236.114 111.4 235.401 128.515C234.568 148.545 221.211 162.733 204.932 177.337C185.179 195.06 175.537 202.85 149.834 209.468C134.424 213.437 122.704 213.224 112.269 206.13C111.649 205.708 111.043 205.264 110.455 204.797C110.533 204.007 110.302 203.1 109.812 202.717C107.24 200.705 105.762 197.158 104.611 193.8C104.287 192.852 102.844 192.877 102.479 193.81C102.443 193.904 102.405 193.999 102.367 194.094C100.01 188.011 100.105 180.524 104.339 171.913C105.898 168.74 107.834 166.449 110.035 164.728C107.609 167.709 107.139 172.208 108.953 175.919C110.757 179.611 117.079 180.378 120.647 180.51C121.549 180.543 122.09 181.706 121.532 182.416C119.326 185.224 115.759 190.582 116.883 194.697C118.189 199.478 121.225 202.391 126.066 203.46C134.807 205.39 138.588 184.265 138.588 184.265L179.493 169.243C179.493 169.243 188.209 176.383 193.685 174.25C199.53 171.973 202.625 165.495 200.364 159.645C198.995 156.106 193.812 154.369 190.21 153.573C189.215 153.353 188.936 151.73 189.803 151.194C193.176 149.108 197.98 145.406 197.859 141.285C197.722 136.586 195.642 132.754 191.181 131.27C186.528 129.722 182.987 132.42 179.493 135.86C175.454 139.838 174.902 149.63 174.902 149.63L124.814 165.487C124.814 165.487 119.309 161.529 115.088 161.814C118.04 160.566 121.246 159.797 124.529 159.01C130.764 157.516 137.276 155.955 142.844 150.917ZM201.792 125.611C204.718 123.041 206.91 119.315 208.216 115.757C208.504 114.972 209.697 114.947 209.963 115.74C211.218 119.484 212.834 123.582 215.897 125.593C216.628 126.073 216.719 127.749 215.959 128.181C211.213 130.882 210.643 134.579 210.441 139.032C210.402 139.89 209.457 140.057 209.16 139.251C207.774 135.487 205.528 129.698 202.033 127.514C201.417 127.129 201.246 126.09 201.792 125.611Z" fill="#E95B47"/>
<path d="M32.5684 126.262C42.587 84.5341 164.05 34.0428 203.703 61.1662M32.5684 126.262L44.8642 156.584C45.0034 156.927 45.3208 157.165 45.6893 157.202C76.6712 160.274 108.458 155.69 136.501 145.61M32.5684 126.262C34.8983 131.989 39.2491 136.033 45.0904 138.648M203.703 61.1662C203.901 61.5899 204.078 62.0177 204.233 62.4496M203.703 61.1662L204.233 62.4496M45.0904 138.648C47.5948 111.658 134.832 54.907 203.148 75.7711M45.0904 138.648C70.4322 149.992 123.827 134.426 161.963 112.53C172.664 105.987 178.833 101.715 190.346 92.2803C196.321 86.7078 200.773 81.1172 203.148 75.7711M203.148 75.7711C205.23 71.0835 205.716 66.5839 204.233 62.4496M136.501 145.61C138.51 150.028 144.014 151.827 146.519 151.299C149.023 150.772 152.347 142.119 151.321 139.616M136.501 145.61C133.74 141.164 136.779 134.302 141.927 133.356C146.264 132.56 149.441 135.025 151.321 139.616M151.321 139.616C179.001 127.105 201.714 109.043 214.303 87.8818C214.463 87.6128 214.485 87.2851 214.366 86.9957L204.233 62.4496M141.093 174.25C141.093 174.25 142.013 168.281 144.849 167.991C147.382 167.732 147.312 172.211 149.858 172.164C153.022 172.105 151.296 165.215 154.449 165.487C156.634 165.676 156.436 169.08 158.623 169.243C161.83 169.481 159.616 162.613 162.797 162.149C164.894 161.843 167.806 164.235 167.806 164.235M205.372 86.2032L205.79 90.3761M202.033 94.9662L198.694 98.7217M160.71 64.9216L166.971 64.0871M171.145 60.3315L177.824 60.3315M52.1862 151.299L56.3602 151.299M64.7082 151.299L68.4648 151.299M220.399 133.356L221.234 142.536M216.642 139.251L225.825 134.608M124.814 165.487C124.814 165.487 117.809 160.451 113.544 162.149C108.277 164.247 106.464 170.826 108.953 175.919C110.757 179.611 117.079 180.378 120.647 180.51C121.549 180.543 122.09 181.706 121.532 182.416C119.326 185.224 115.759 190.582 116.883 194.697C118.189 199.478 121.225 202.391 126.066 203.46C134.807 205.39 138.588 184.265 138.588 184.265L179.493 169.243C179.493 169.243 188.209 176.383 193.685 174.25C199.53 171.973 202.625 165.495 200.364 159.645C198.995 156.106 193.812 154.369 190.21 153.573C189.215 153.353 188.936 151.73 189.803 151.194C193.176 149.108 197.98 145.405 197.859 141.285C197.722 136.586 195.642 132.754 191.181 131.27C186.528 129.722 182.987 132.42 179.493 135.86C175.454 139.838 174.902 149.63 174.902 149.63L124.814 165.487ZM208.216 115.757C206.91 119.315 204.718 123.041 201.792 125.611C201.246 126.09 201.417 127.129 202.033 127.514C205.528 129.698 207.774 135.487 209.16 139.251C209.457 140.057 210.402 139.89 210.441 139.032C210.643 134.579 211.213 130.882 215.959 128.181C216.719 127.749 216.628 126.073 215.897 125.593C212.834 123.582 211.218 119.484 209.963 115.74C209.697 114.947 208.504 114.972 208.216 115.757ZM109.844 206.049C105.839 208.584 105.162 211.935 104.938 215.922C104.88 216.949 103.766 217.144 103.407 216.18C102.052 212.545 99.9544 207.445 96.8132 205.242C96.1007 204.743 95.8964 203.468 96.5373 202.879C99.1796 200.453 101.2 197.088 102.479 193.81C102.844 192.877 104.287 192.852 104.611 193.8C105.762 197.158 107.24 200.705 109.812 202.717C110.636 203.362 110.729 205.489 109.844 206.049Z" stroke="#231E54" stroke-width="4" stroke-linecap="round"/>
</svg>
