<svg width="661" height="226" viewBox="0 0 661 226" fill="none" xmlns="http://www.w3.org/2000/svg">
<path d="M135 173C135 211.108 95.8249 242 47.5 242C-0.824917 242 -40 211.108 -40 173C-40 134.892 -0.824917 104 47.5 104C95.8249 104 135 134.892 135 173Z" fill="#E95B47"/>
<path d="M-5.99989 47.305C-5.95475 25.1607 9.03284 9.40075 29.0046 2.54567C47.3514 -3.75166 66.108 2.53585 73.6931 11.576C82.2583 21.7843 83.1849 35.2713 78.1619 49.6607C70.4655 71.7084 53.0987 83.8508 30.8675 82.2486C8.80928 80.6588 -6.0474 70.6156 -5.99989 47.305Z" fill="#FBAD36"/>
<path d="M112.421 48.8755C126.967 33.3765 146.844 25.2158 164.185 37.0967C177.003 45.8795 181.578 58.2922 180.943 74.3961C180.199 93.2421 168.282 106.591 153.759 120.333C136.135 137.008 127.532 144.338 104.601 150.566C90.8528 154.299 80.3963 154.099 71.0864 147.424C62.5246 141.286 57.1157 130.021 64.0108 115.229C71.4081 99.3605 88.2885 106.924 99.7609 94.0273C112.361 79.863 95.1034 67.3288 112.421 48.8755Z" fill="#FBAD36"/>
<path d="M156.784 155.023C153.913 124.2 194.362 102.909 214.198 100.188C228.818 98.1821 240.079 100.592 250.347 111.189C257.943 119.029 254.263 125.684 260.351 132.846C262.79 135.716 279.126 121.509 293.572 120.627C310.492 119.593 322.06 125.791 327.97 140.039C338.963 166.541 313.4 173.386 318.541 177.224C327.085 183.602 347.93 182.6 352.485 201.57C357.041 220.54 337.589 266.64 299.04 290.507C292.723 294.418 267.53 306.018 246.399 293.722C225.267 281.426 225.506 253.632 238.611 234.189C246.571 222.38 253.563 213.273 252.966 203.496C252.152 190.178 241.834 181.909 227.922 182.758C216.086 183.481 206.687 193.491 190.051 192.997C168.138 192.347 158.816 176.851 156.784 155.023Z" fill="#B2AB73"/>
<path d="M331.486 223.819C336.143 193.219 352.57 165.691 371.018 156.632C379.89 152.276 387.129 153.444 395.114 159.274C405.003 166.494 401.891 180.789 400.385 187.583C397.901 198.79 392.479 209.098 390.596 214.383C388.714 219.667 384.572 240.805 390.596 244.202C396.62 247.599 410.551 226.461 426.364 227.216C442.177 227.971 450.083 241.56 451.966 249.109C453.848 256.658 451.213 270.247 448.954 276.286C446.695 282.325 433.141 301.198 422.975 308.747C412.81 316.296 404.527 319.122 384.949 316.296C365.371 313.47 348.401 300.821 339.769 286.1C331.138 271.379 327.795 248.076 331.486 223.819Z" fill="#231E54"/>
<path d="M487.356 178.524C496.769 173.24 509.946 175.882 517.1 180.789C524.253 185.696 535.172 198.907 541.572 210.608C547.973 222.309 554.165 241.933 553.997 271.001C553.81 303.257 556.053 336.246 530.277 355.552C518.463 364.401 509.193 366.876 498.651 365.743C488.109 364.611 476.062 361.214 470.414 333.282C464.767 305.35 485.748 301.7 488.486 277.796C492.05 246.682 477.191 239.295 472.297 215.893C467.402 192.49 477.944 183.809 487.356 178.524Z" fill="#231E54"/>
<path d="M578.232 101.026C594.878 95.5555 598.641 85.9242 612.247 79.5058C625.852 73.0874 639.08 76.1538 648.906 83.2813C658.732 90.4087 661 99.1385 661 106.69C661 114.241 657.777 123.233 648.906 130.098C640.072 136.934 626.235 132.946 615.648 136.516C601.826 141.177 600.597 152.751 587.303 161.435C574.009 170.118 539.014 182.304 520.409 164.455C510.801 155.238 506.134 145.8 508.693 132.741C511.318 119.337 523.054 111.22 534.77 107.445C546.486 103.669 563.445 105.886 578.232 101.026Z" fill="#E95B47"/>
<path d="M626.23 145.577C630.387 145.577 635.678 144.777 643.615 151.241C651.552 157.705 656.087 166.72 651.552 178.424C647.016 190.129 637.568 195.529 632.277 198.812C626.986 202.096 616.782 209.006 606.955 211.649C597.129 214.292 585.035 213.914 580.122 202.588C575.209 191.261 587.119 183.578 594.106 172.384C598.654 165.096 599.019 157.282 605.066 152.373C611.113 147.465 622.073 145.577 626.23 145.577Z" fill="#E95B47"/>
</svg>
