<svg width="302" height="96" viewBox="0 0 302 96" fill="none" xmlns="http://www.w3.org/2000/svg">
<path d="M112.524 33.216C111.24 33.216 110.076 32.94 109.032 32.388C108 31.824 107.184 31.05 106.584 30.066C105.996 29.07 105.702 27.948 105.702 26.7C105.702 25.452 105.996 24.336 106.584 23.352C107.184 22.356 108 21.582 109.032 21.03C110.076 20.466 111.246 20.184 112.542 20.184C113.634 20.184 114.618 20.376 115.494 20.76C116.382 21.144 117.126 21.696 117.726 22.416L115.854 24.144C115.002 23.16 113.946 22.668 112.686 22.668C111.906 22.668 111.21 22.842 110.598 23.19C109.986 23.526 109.506 24 109.158 24.612C108.822 25.224 108.654 25.92 108.654 26.7C108.654 27.48 108.822 28.176 109.158 28.788C109.506 29.4 109.986 29.88 110.598 30.228C111.21 30.564 111.906 30.732 112.686 30.732C113.946 30.732 115.002 30.234 115.854 29.238L117.726 30.966C117.126 31.698 116.382 32.256 115.494 32.64C114.606 33.024 113.616 33.216 112.524 33.216ZM130.756 20.4L125.392 30.372C124.876 31.332 124.252 32.058 123.52 32.55C122.8 33.042 122.014 33.288 121.162 33.288C120.502 33.288 119.818 33.144 119.11 32.856L119.812 30.642C120.316 30.798 120.736 30.876 121.072 30.876C121.432 30.876 121.756 30.792 122.044 30.624C122.332 30.444 122.596 30.168 122.836 29.796L122.944 29.652L117.976 20.4H121.09L124.438 27.168L127.894 20.4H130.756ZM143.608 33L143.59 25.458L139.882 31.668H138.586L134.878 25.602V33H132.142V20.4H134.554L139.27 28.23L143.914 20.4H146.326L146.344 33H143.608ZM155.432 33.216C154.148 33.216 152.984 32.94 151.94 32.388C150.908 31.824 150.092 31.05 149.492 30.066C148.904 29.07 148.61 27.948 148.61 26.7C148.61 25.452 148.904 24.336 149.492 23.352C150.092 22.356 150.908 21.582 151.94 21.03C152.984 20.466 154.154 20.184 155.45 20.184C156.542 20.184 157.526 20.376 158.402 20.76C159.29 21.144 160.034 21.696 160.634 22.416L158.762 24.144C157.91 23.16 156.854 22.668 155.594 22.668C154.814 22.668 154.118 22.842 153.506 23.19C152.894 23.526 152.414 24 152.066 24.612C151.73 25.224 151.562 25.92 151.562 26.7C151.562 27.48 151.73 28.176 152.066 28.788C152.414 29.4 152.894 29.88 153.506 30.228C154.118 30.564 154.814 30.732 155.594 30.732C156.854 30.732 157.91 30.234 158.762 29.238L160.634 30.966C160.034 31.698 159.29 32.256 158.402 32.64C157.514 33.024 156.524 33.216 155.432 33.216ZM168.637 24.54C170.173 24.54 171.349 24.882 172.165 25.566C172.993 26.25 173.407 27.264 173.407 28.608C173.407 30.036 172.951 31.128 172.039 31.884C171.139 32.628 169.867 33 168.223 33H162.535V20.4H165.433V24.54H168.637ZM168.061 30.84C168.817 30.84 169.405 30.654 169.825 30.282C170.257 29.91 170.473 29.37 170.473 28.662C170.473 27.354 169.669 26.7 168.061 26.7H165.433V30.84H168.061ZM180.385 27.924H178.369V33H175.471V20.4H178.369V25.494H180.457L183.769 20.4H186.847L182.725 26.484L186.973 33H183.661L180.385 27.924ZM198.095 30.66V33H188.339V20.4H197.861V22.74H191.237V25.476H197.087V27.744H191.237V30.66H198.095ZM116.196 44.776H112.164V55H109.284V44.776H105.27V42.4H116.196V44.776ZM123.863 55.216C122.555 55.216 121.373 54.934 120.317 54.37C119.273 53.806 118.451 53.032 117.851 52.048C117.263 51.052 116.969 49.936 116.969 48.7C116.969 47.464 117.263 46.354 117.851 45.37C118.451 44.374 119.273 43.594 120.317 43.03C121.373 42.466 122.555 42.184 123.863 42.184C125.171 42.184 126.347 42.466 127.391 43.03C128.435 43.594 129.257 44.374 129.857 45.37C130.457 46.354 130.757 47.464 130.757 48.7C130.757 49.936 130.457 51.052 129.857 52.048C129.257 53.032 128.435 53.806 127.391 54.37C126.347 54.934 125.171 55.216 123.863 55.216ZM123.863 52.732C124.607 52.732 125.279 52.564 125.879 52.228C126.479 51.88 126.947 51.4 127.283 50.788C127.631 50.176 127.805 49.48 127.805 48.7C127.805 47.92 127.631 47.224 127.283 46.612C126.947 46 126.479 45.526 125.879 45.19C125.279 44.842 124.607 44.668 123.863 44.668C123.119 44.668 122.447 44.842 121.847 45.19C121.247 45.526 120.773 46 120.425 46.612C120.089 47.224 119.921 47.92 119.921 48.7C119.921 49.48 120.089 50.176 120.425 50.788C120.773 51.4 121.247 51.88 121.847 52.228C122.447 52.564 123.119 52.732 123.863 52.732ZM141.734 48.43C142.502 48.658 143.09 49.03 143.498 49.546C143.906 50.062 144.11 50.698 144.11 51.454C144.11 52.57 143.684 53.44 142.832 54.064C141.992 54.688 140.786 55 139.214 55H133.004V42.4H138.872C140.336 42.4 141.476 42.682 142.292 43.246C143.108 43.81 143.516 44.614 143.516 45.658C143.516 46.282 143.36 46.834 143.048 47.314C142.736 47.782 142.298 48.154 141.734 48.43ZM135.902 47.62H138.62C139.256 47.62 139.736 47.494 140.06 47.242C140.384 46.978 140.546 46.594 140.546 46.09C140.546 45.598 140.378 45.22 140.042 44.956C139.718 44.692 139.244 44.56 138.62 44.56H135.902V47.62ZM139.106 52.84C140.474 52.84 141.158 52.3 141.158 51.22C141.158 50.176 140.474 49.654 139.106 49.654H135.902V52.84H139.106ZM154.948 52.3H149.098L147.982 55H144.994L150.61 42.4H153.49L159.124 55H156.064L154.948 52.3ZM154.03 50.086L152.032 45.262L150.034 50.086H154.03ZM166.249 42.4C167.365 42.4 168.331 42.586 169.147 42.958C169.975 43.33 170.611 43.858 171.055 44.542C171.499 45.226 171.721 46.036 171.721 46.972C171.721 47.896 171.499 48.706 171.055 49.402C170.611 50.086 169.975 50.614 169.147 50.986C168.331 51.346 167.365 51.526 166.249 51.526H163.711V55H160.795V42.4H166.249ZM166.087 49.15C166.963 49.15 167.629 48.964 168.085 48.592C168.541 48.208 168.769 47.668 168.769 46.972C168.769 46.264 168.541 45.724 168.085 45.352C167.629 44.968 166.963 44.776 166.087 44.776H163.711V49.15H166.087ZM173.644 42.4H176.542V50.608L182.554 42.4H185.29V55H182.41V46.81L176.398 55H173.644V42.4ZM194.385 55.216C193.101 55.216 191.937 54.94 190.893 54.388C189.861 53.824 189.045 53.05 188.445 52.066C187.857 51.07 187.563 49.948 187.563 48.7C187.563 47.452 187.857 46.336 188.445 45.352C189.045 44.356 189.861 43.582 190.893 43.03C191.937 42.466 193.107 42.184 194.403 42.184C195.495 42.184 196.479 42.376 197.355 42.76C198.243 43.144 198.987 43.696 199.587 44.416L197.715 46.144C196.863 45.16 195.807 44.668 194.547 44.668C193.767 44.668 193.071 44.842 192.459 45.19C191.847 45.526 191.367 46 191.019 46.612C190.683 47.224 190.515 47.92 190.515 48.7C190.515 49.48 190.683 50.176 191.019 50.788C191.367 51.4 191.847 51.88 192.459 52.228C193.071 52.564 193.767 52.732 194.547 52.732C195.807 52.732 196.863 52.234 197.715 51.238L199.587 52.966C198.987 53.698 198.243 54.256 197.355 54.64C196.467 55.024 195.477 55.216 194.385 55.216ZM210.995 44.776H206.963V55H204.083V44.776H200.069V42.4H210.995V44.776ZM221.556 48.43C222.324 48.658 222.912 49.03 223.32 49.546C223.728 50.062 223.932 50.698 223.932 51.454C223.932 52.57 223.506 53.44 222.654 54.064C221.814 54.688 220.608 55 219.036 55H212.826V42.4H218.694C220.158 42.4 221.298 42.682 222.114 43.246C222.93 43.81 223.338 44.614 223.338 45.658C223.338 46.282 223.182 46.834 222.87 47.314C222.558 47.782 222.12 48.154 221.556 48.43ZM215.724 47.62H218.442C219.078 47.62 219.558 47.494 219.882 47.242C220.206 46.978 220.368 46.594 220.368 46.09C220.368 45.598 220.2 45.22 219.864 44.956C219.54 44.692 219.066 44.56 218.442 44.56H215.724V47.62ZM218.928 52.84C220.296 52.84 220.98 52.3 220.98 51.22C220.98 50.176 220.296 49.654 218.928 49.654H215.724V52.84H218.928ZM232.25 55.216C230.942 55.216 229.76 54.934 228.704 54.37C227.66 53.806 226.838 53.032 226.238 52.048C225.65 51.052 225.356 49.936 225.356 48.7C225.356 47.464 225.65 46.354 226.238 45.37C226.838 44.374 227.66 43.594 228.704 43.03C229.76 42.466 230.942 42.184 232.25 42.184C233.558 42.184 234.734 42.466 235.778 43.03C236.822 43.594 237.644 44.374 238.244 45.37C238.844 46.354 239.144 47.464 239.144 48.7C239.144 49.936 238.844 51.052 238.244 52.048C237.644 53.032 236.822 53.806 235.778 54.37C234.734 54.934 233.558 55.216 232.25 55.216ZM232.25 52.732C232.994 52.732 233.666 52.564 234.266 52.228C234.866 51.88 235.334 51.4 235.67 50.788C236.018 50.176 236.192 49.48 236.192 48.7C236.192 47.92 236.018 47.224 235.67 46.612C235.334 46 234.866 45.526 234.266 45.19C233.666 44.842 232.994 44.668 232.25 44.668C231.506 44.668 230.834 44.842 230.234 45.19C229.634 45.526 229.16 46 228.812 46.612C228.476 47.224 228.308 47.92 228.308 48.7C228.308 49.48 228.476 50.176 228.812 50.788C229.16 51.4 229.634 51.88 230.234 52.228C230.834 52.564 231.506 52.732 232.25 52.732ZM113.73 70.43C114.462 70.682 115.032 71.078 115.44 71.618C115.86 72.146 116.07 72.764 116.07 73.472C116.07 74.24 115.818 74.906 115.314 75.47C114.81 76.034 114.126 76.466 113.262 76.766C112.41 77.066 111.474 77.216 110.454 77.216C109.59 77.216 108.726 77.108 107.862 76.892C107.01 76.676 106.2 76.346 105.432 75.902L106.332 73.814C106.884 74.15 107.49 74.408 108.15 74.588C108.822 74.756 109.476 74.84 110.112 74.84C110.976 74.84 111.69 74.684 112.254 74.372C112.83 74.06 113.118 73.622 113.118 73.058C113.118 72.59 112.92 72.236 112.524 71.996C112.14 71.756 111.612 71.636 110.94 71.636H107.862V69.44H110.724C111.312 69.44 111.768 69.32 112.092 69.08C112.428 68.84 112.596 68.51 112.596 68.09C112.596 67.598 112.356 67.214 111.876 66.938C111.408 66.662 110.802 66.524 110.058 66.524C109.506 66.524 108.936 66.602 108.348 66.758C107.76 66.902 107.202 67.124 106.674 67.424L105.792 65.156C107.124 64.472 108.564 64.13 110.112 64.13C111.096 64.13 112.002 64.274 112.83 64.562C113.658 64.85 114.318 65.27 114.81 65.822C115.302 66.374 115.548 67.016 115.548 67.748C115.548 68.348 115.386 68.882 115.062 69.35C114.738 69.818 114.294 70.178 113.73 70.43ZM126.911 74.3H121.061L119.945 77H116.957L122.573 64.4H125.453L131.087 77H128.027L126.911 74.3ZM125.993 72.086L123.995 67.262L121.997 72.086H125.993ZM134.375 64.4L136.985 68.216L139.595 64.4H143.015L138.821 70.43L143.357 77H139.919L136.985 72.824L134.087 77H130.721L135.221 70.556L131.009 64.4H134.375ZM144.693 64.4H147.591V72.608L153.603 64.4H156.339V77H153.459V68.81L147.447 77H144.693V64.4ZM165.434 77.216C164.15 77.216 162.986 76.94 161.942 76.388C160.91 75.824 160.094 75.05 159.494 74.066C158.906 73.07 158.612 71.948 158.612 70.7C158.612 69.452 158.906 68.336 159.494 67.352C160.094 66.356 160.91 65.582 161.942 65.03C162.986 64.466 164.156 64.184 165.452 64.184C166.544 64.184 167.528 64.376 168.404 64.76C169.292 65.144 170.036 65.696 170.636 66.416L168.764 68.144C167.912 67.16 166.856 66.668 165.596 66.668C164.816 66.668 164.12 66.842 163.508 67.19C162.896 67.526 162.416 68 162.068 68.612C161.732 69.224 161.564 69.92 161.564 70.7C161.564 71.48 161.732 72.176 162.068 72.788C162.416 73.4 162.896 73.88 163.508 74.228C164.12 74.564 164.816 74.732 165.596 74.732C166.856 74.732 167.912 74.234 168.764 73.238L170.636 74.966C170.036 75.698 169.292 76.256 168.404 76.64C167.516 77.024 166.526 77.216 165.434 77.216ZM182.044 66.776H178.012V77H175.132V66.776H171.118V64.4H182.044V66.776ZM194.706 64.4L189.342 74.372C188.826 75.332 188.202 76.058 187.47 76.55C186.75 77.042 185.964 77.288 185.112 77.288C184.452 77.288 183.768 77.144 183.06 76.856L183.762 74.642C184.266 74.798 184.686 74.876 185.022 74.876C185.382 74.876 185.706 74.792 185.994 74.624C186.282 74.444 186.546 74.168 186.786 73.796L186.894 73.652L181.926 64.4H185.04L188.388 71.168L191.844 64.4H194.706ZM211.083 66.776H207.051V77H204.171V66.776H200.157V64.4H211.083V66.776ZM221.644 70.43C222.412 70.658 223 71.03 223.408 71.546C223.816 72.062 224.02 72.698 224.02 73.454C224.02 74.57 223.594 75.44 222.742 76.064C221.902 76.688 220.696 77 219.124 77H212.914V64.4H218.782C220.246 64.4 221.386 64.682 222.202 65.246C223.018 65.81 223.426 66.614 223.426 67.658C223.426 68.282 223.27 68.834 222.958 69.314C222.646 69.782 222.208 70.154 221.644 70.43ZM215.812 69.62H218.53C219.166 69.62 219.646 69.494 219.97 69.242C220.294 68.978 220.456 68.594 220.456 68.09C220.456 67.598 220.288 67.22 219.952 66.956C219.628 66.692 219.154 66.56 218.53 66.56H215.812V69.62ZM219.016 74.84C220.384 74.84 221.068 74.3 221.068 73.22C221.068 72.176 220.384 71.654 219.016 71.654H215.812V74.84H219.016ZM234.858 74.3H229.008L227.892 77H224.904L230.52 64.4H233.4L239.034 77H235.974L234.858 74.3ZM233.94 72.086L231.942 67.262L229.944 72.086H233.94ZM246.159 64.4C247.275 64.4 248.241 64.586 249.057 64.958C249.885 65.33 250.521 65.858 250.965 66.542C251.409 67.226 251.631 68.036 251.631 68.972C251.631 69.896 251.409 70.706 250.965 71.402C250.521 72.086 249.885 72.614 249.057 72.986C248.241 73.346 247.275 73.526 246.159 73.526H243.621V77H240.705V64.4H246.159ZM245.997 71.15C246.873 71.15 247.539 70.964 247.995 70.592C248.451 70.208 248.679 69.668 248.679 68.972C248.679 68.264 248.451 67.724 247.995 67.352C247.539 66.968 246.873 66.776 245.997 66.776H243.621V71.15H245.997ZM253.554 64.4H256.452V72.608L262.464 64.4H265.2V77H262.32V68.81L256.308 77H253.554V64.4ZM279.893 64.4V77H276.977V71.834H271.253V77H268.337V64.4H271.253V69.368H276.977V64.4H279.893Z" fill="#231E54"/>
<path d="M96 48C96 74.5096 74.5096 96 48 96C21.4903 96 0 74.5096 0 48C0 21.4903 21.4903 0 48 0C74.5096 0 96 21.4903 96 48Z" fill="#FBAD36" fill-opacity="0.7"/>
<path fill-rule="evenodd" clip-rule="evenodd" d="M73.8723 55.1305C74.1394 55.0676 74.4066 55.2331 74.4695 55.4999C74.927 57.4441 75.0988 58.9069 74.9396 60.2959C74.784 61.6515 74.3179 62.8969 73.5648 64.415C73.6452 65.9384 73.4039 67.6009 72.9828 69.6185C72.9739 69.6622 72.959 69.7046 72.9384 69.744C71.7123 72.1311 70.4928 73.7737 68.8872 75.0266C67.2877 76.275 65.3412 77.1075 62.7151 77.9358C62.6853 77.945 62.6549 77.9517 62.6237 77.9553C58.7308 78.4115 56.5579 78.5061 52.8917 77.953C52.8572 77.9477 52.8235 77.9391 52.7907 77.9268C49.6591 76.7464 45.8668 76.2263 42.7514 75.9976C41.1979 75.8837 39.8218 75.8426 38.7916 75.8267C38.2881 75.8191 37.868 75.8175 37.5489 75.8162L37.4949 75.8158C37.2033 75.8145 36.9742 75.8138 36.8703 75.8052C36.5952 75.7827 36.4025 75.6179 36.289 75.4454C36.181 75.2812 36.1254 75.0869 36.0976 74.9035C36.0417 74.5317 36.0804 74.0683 36.2062 73.585C36.4601 72.6111 37.0983 71.4422 38.2778 70.6024C38.3043 70.5835 38.3321 70.5676 38.3616 70.5544C41.083 69.3266 43.0186 69.2342 44.8383 69.645C45.7294 69.8463 46.5812 70.1661 47.4551 70.5047C47.5388 70.5371 47.6229 70.5699 47.7073 70.6027C48.5084 70.9139 49.3417 71.2376 50.2868 71.522C52.793 72.1827 54.7316 72.4552 56.6658 72.4297C58.6073 72.4038 60.5667 72.0774 63.121 71.515C63.3891 71.4561 63.6539 71.6253 63.7128 71.8931C63.7718 72.1609 63.6026 72.426 63.3348 72.485C60.7613 73.0517 58.7232 73.3956 56.679 73.4228C54.6296 73.4499 52.5964 73.1583 50.0252 72.48C50.0199 72.4787 50.0146 72.477 50.009 72.4757C49.0209 72.1787 48.1496 71.8401 47.3495 71.5289C47.2644 71.4958 47.18 71.463 47.0966 71.4306C46.22 71.091 45.4308 70.797 44.6194 70.6139C43.0431 70.2578 41.3379 70.3094 38.8151 71.4392C37.8779 72.1218 37.3688 73.0623 37.1675 73.8352C37.0646 74.2302 37.0494 74.5536 37.0798 74.7555C37.0834 74.78 37.0878 74.8015 37.0921 74.8197C37.1897 74.8214 37.334 74.8221 37.5303 74.8227L37.5532 74.823C37.8726 74.8244 38.2977 74.826 38.8068 74.8336C39.8492 74.8499 41.2459 74.8912 42.8239 75.0071C45.9552 75.2368 49.8362 75.7615 53.0913 76.9787C56.5956 77.5034 58.6695 77.4177 62.4612 76.9744C65.0271 76.1627 66.8262 75.3755 68.2762 74.2437C69.7162 73.1199 70.8476 71.6286 72.0245 69.3501C72.4452 67.3225 72.6581 65.7494 72.5657 64.3448C72.4392 62.4251 71.7375 60.4502 70.1207 58.4044C69.9505 58.1892 69.9873 57.8771 70.2024 57.7069C70.4176 57.5368 70.7298 57.5735 70.8999 57.7887C72.1757 59.4035 72.9375 61.003 73.3062 62.5874C73.6512 61.7343 73.862 60.9729 73.9527 60.1827C74.0931 58.9586 73.9491 57.6242 73.5029 55.7277C73.44 55.4605 73.6055 55.1934 73.8723 55.1305Z" fill="#231E54"/>
<path fill-rule="evenodd" clip-rule="evenodd" d="M45.9844 8.82461C50.0366 8.63585 54.1874 9.18709 59.5197 10.272C59.5353 10.2752 59.5505 10.2791 59.5657 10.2837C65.2602 12.0236 69.1025 13.7783 72.3096 16.1631C75.5133 18.5455 78.0533 21.5349 81.1697 25.6882C81.1776 25.6991 81.1856 25.7103 81.1929 25.7218C84.4774 30.9425 86.0442 33.9996 86.882 38.1123C88.3343 42.8941 88.1168 47.7795 86.8883 54.3804C85.6552 61.0047 82.3157 72.5538 71.2767 79.6995C71.2747 79.7009 71.2728 79.7022 71.2708 79.7035C71.2675 79.7055 71.2638 79.7075 71.2605 79.7095C65.7965 82.9572 61.4241 85.1222 56.5566 86.2027C51.6871 87.2835 46.3608 87.2709 38.9926 86.2295C38.978 86.2275 38.9635 86.2249 38.9489 86.2216C38.9419 86.2199 38.935 86.2179 38.9284 86.2159C31.638 84.1758 26.7009 82.3021 22.7648 79.4287C18.82 76.5491 15.9213 72.6955 12.6416 66.7786C12.5086 66.5389 12.5953 66.2367 12.8352 66.1036C13.075 65.9705 13.3772 66.0573 13.5102 66.2973C16.7608 72.1615 19.5749 75.8705 23.3503 78.6267C27.129 81.3852 31.9115 83.2194 39.1641 85.251C46.4538 86.2788 51.6401 86.2769 56.3414 85.2331C61.0497 84.188 65.3105 82.0903 70.7451 78.8607C81.4282 71.9407 84.6949 60.7382 85.9118 54.1989C87.1187 47.7136 87.312 43.0404 85.9684 38.5231L77.9861 32.0069C75.3428 30.0773 73.2249 28.7563 70.849 27.8858C68.4722 27.0151 65.8057 26.584 62.0568 26.4826C58.9119 26.4122 56.499 26.4464 54.105 26.8844C51.7169 27.3213 49.3245 28.1645 46.2396 29.7388C46.0208 29.8505 45.753 29.7854 45.61 29.5856C45.467 29.3858 45.4918 29.1115 45.6679 28.9403C47.1499 27.5013 48.4171 26.39 49.7572 25.3988C47.861 26.3032 46.1029 27.2693 43.9525 28.5634C43.7744 28.6706 43.5483 28.6554 43.3861 28.5253C40.9606 26.5801 39.0386 25.3251 36.9819 24.5942C34.9354 23.867 32.7162 23.6448 29.6783 23.8323C25.6189 24.4146 22.7062 25.2614 20.1454 26.7204C17.5778 28.1833 15.328 30.2821 12.6249 33.4272C12.4573 33.6222 12.1685 33.6569 11.9594 33.5073C11.7502 33.3577 11.6899 33.0731 11.8204 32.8515C12.061 32.4429 12.2964 32.0415 12.5279 31.6469C14.8928 27.6152 16.8403 24.295 19.5774 21.2752C22.5934 17.9477 26.5505 15.0005 33.0498 11.8027C33.0644 11.7956 33.0792 11.7891 33.0944 11.7834C37.9952 9.94307 41.9262 9.01359 45.9844 8.82461ZM85.5887 36.9312C84.726 33.6457 83.232 30.8291 80.363 26.2679C77.2641 22.1387 74.7966 19.2501 71.717 16.96C68.6404 14.6725 64.9232 12.9606 59.2982 11.2404C54.0047 10.1643 49.9545 9.63385 46.0304 9.81662C42.1123 9.99912 38.2921 10.8941 33.4663 12.7046C27.058 15.8598 23.2194 18.7359 20.3132 21.9422C18.2754 24.1905 16.6874 26.6089 14.9897 29.4347C16.5209 27.9569 18.0193 26.7888 19.6537 25.8575C22.3679 24.3111 25.4211 23.4383 29.5573 22.8464C29.5704 22.8445 29.5836 22.8432 29.5968 22.8423C32.7241 22.6477 35.0943 22.8695 37.3142 23.6584C39.4464 24.4161 41.4032 25.6842 43.7366 27.5348C47.9037 25.0439 50.6774 23.7562 55.9306 21.7164C56.1769 21.6207 56.4553 21.7349 56.5632 21.976C56.6715 22.2171 56.5718 22.5007 56.3368 22.6212C52.9927 24.3343 50.9297 25.6154 48.73 27.4824C50.5877 26.7091 52.2522 26.2138 53.9262 25.9075C56.4268 25.4501 58.9258 25.4191 62.0803 25.4898L62.0826 25.4898C65.8948 25.5929 68.6778 26.0328 71.1907 26.9533C73.7006 27.8729 75.9099 29.261 78.5827 31.2128C78.5896 31.218 78.5969 31.2235 78.6038 31.2291L85.5887 36.9312ZM41.9759 39.7284C42.1622 39.7036 42.3466 39.7864 42.4522 39.942C43.6026 41.6378 44.3636 42.9931 44.9016 44.3781C45.3802 45.6116 45.6758 46.8516 45.9201 48.3519C48.106 47.706 49.8571 47.4157 51.5726 47.4392C53.4273 47.4644 55.2076 47.8563 57.4117 48.5174C57.6745 48.5962 57.8235 48.8733 57.7447 49.1358C57.6659 49.3986 57.3888 49.5476 57.1263 49.4688C54.9551 48.8173 53.2777 48.4555 51.559 48.432C49.8426 48.4088 48.0533 48.7226 45.6649 49.4671C45.5265 49.5102 45.3763 49.4906 45.2534 49.4138C45.1306 49.3367 45.0475 49.2096 45.026 49.0663C44.7688 47.3402 44.4762 46.0267 43.9756 44.7377C43.5609 43.6691 42.9971 42.6025 42.1752 41.323C41.4691 43.2185 40.7686 44.536 39.3034 46.6295C39.214 46.7573 39.07 46.8354 38.9145 46.841C36.478 46.9281 34.76 47.1717 33.2942 47.7024C31.8363 48.2301 30.5938 49.0543 29.1302 50.357C28.97 50.4996 28.7363 50.5235 28.5508 50.4156C26.5511 49.2556 25.2796 48.5982 22.976 47.7583C23.7938 52.5352 24.4307 55.4152 25.9632 60.2642C25.9903 60.3499 25.9936 60.4416 25.9726 60.5293C25.4012 62.9214 25.2626 64.4405 25.3241 67.5211C25.3295 67.7952 25.1117 68.022 24.8375 68.0276C24.5633 68.0329 24.3366 67.8151 24.3312 67.541C24.2696 64.4541 24.4062 62.8495 24.9749 60.4327C23.3684 55.3324 22.7427 52.3653 21.8552 47.0893C21.8261 46.9162 21.8904 46.7407 22.0245 46.6275C22.1586 46.5143 22.3424 46.4802 22.5081 46.5378C25.2722 47.4998 26.6552 48.1784 28.74 49.3781C30.1519 48.1549 31.4363 47.3187 32.9563 46.7685C34.5107 46.2058 36.2794 45.9545 38.6304 45.8582C40.1681 43.6383 40.7841 42.3459 41.572 40.0591C41.6332 39.881 41.7895 39.7533 41.9759 39.7284Z" fill="#231E54"/>
<path fill-rule="evenodd" clip-rule="evenodd" d="M42.2029 39.7513C42.4624 39.8404 42.6002 40.1231 42.5108 40.3823C41.6699 42.8243 40.9986 44.2074 39.3034 46.6295C39.214 46.7573 39.07 46.8354 38.9144 46.8411C36.478 46.9281 34.7599 47.1718 33.2941 47.7024C31.8363 48.2301 30.5938 49.0544 29.1301 50.357C28.9699 50.4997 28.7363 50.5235 28.5508 50.4156C26.5511 49.2556 25.2795 48.5982 22.976 47.7584C23.7938 52.5352 24.4307 55.4152 25.9631 60.2642C25.9902 60.3499 25.9935 60.4416 25.9726 60.5293C25.4012 62.9214 25.2626 64.4405 25.324 67.5211C25.3295 67.7952 25.1117 68.022 24.8375 68.0276C24.5633 68.0329 24.3366 67.8151 24.3311 67.541C24.2696 64.4541 24.4061 62.8495 24.9749 60.4327C23.3683 55.3324 22.7427 52.3654 21.8552 47.0893C21.8261 46.9162 21.8904 46.7408 22.0244 46.6275C22.1585 46.5143 22.3423 46.4802 22.508 46.5378C25.2722 47.4998 26.6551 48.1784 28.74 49.3781C30.1518 48.1549 31.4362 47.3187 32.9563 46.7686C34.5107 46.2058 36.2794 45.9546 38.6304 45.8582C40.168 43.6383 40.7841 42.346 41.572 40.0592C41.661 39.7996 41.9437 39.6619 42.2029 39.7513ZM51.5589 48.432C49.8425 48.4088 48.0533 48.7227 45.6649 49.4672C45.4034 49.5489 45.125 49.4026 45.0432 49.1408C44.9614 48.8792 45.1077 48.6008 45.3696 48.5191C47.8166 47.7564 49.7154 47.4138 51.5725 47.4392C53.4273 47.4644 55.2076 47.8563 57.4116 48.5174C57.6745 48.5962 57.8234 48.8733 57.7446 49.1358C57.6659 49.3986 57.3888 49.5476 57.1263 49.4688C54.955 48.8173 53.2777 48.4555 51.5589 48.432Z" fill="#231E54"/>
<path fill-rule="evenodd" clip-rule="evenodd" d="M47.3505 11.3099C47.4118 11.0426 47.6779 10.8755 47.9454 10.9367C50.6162 11.5478 51.7629 12.1321 53.4657 13.2521C60.5634 13.9036 67.3364 16.5402 75.2379 21.3602C76.8487 22.3427 78.5065 23.4162 80.2239 24.5823C80.4507 24.7363 80.5096 25.0451 80.3557 25.272C80.2017 25.4989 79.8929 25.558 79.6658 25.4039C77.9875 24.2642 76.3687 23.2154 74.7983 22.2553C72.4158 21.8079 70.6103 21.5907 68.8883 21.6187C67.1487 21.647 65.473 21.9259 63.356 22.4934C63.0912 22.5644 62.8191 22.4073 62.7479 22.1424C62.6771 21.8775 62.834 21.6052 63.0992 21.5342C65.2671 20.9529 67.0272 20.6557 68.8721 20.6257C70.0012 20.6074 71.1542 20.6892 72.443 20.8623C65.5455 16.9246 59.5144 14.7839 53.2529 14.2301C49.9664 13.9394 46.6064 14.085 43.0126 14.6449C38.9035 16.515 37.0822 17.6231 34.7616 19.7329C34.5587 19.9174 34.2445 19.9025 34.0601 19.6996C33.8758 19.4966 33.8907 19.1826 34.0936 18.9981C35.76 17.483 37.1888 16.4618 39.2706 15.3565C36.5048 15.9716 33.5844 16.8057 30.4465 17.8504C30.1863 17.9371 29.9052 17.7964 29.8185 17.5362C29.7319 17.276 29.8726 16.9948 30.1328 16.9082C34.7292 15.378 38.8863 14.2879 42.7918 13.6742C45.747 13.21 48.5581 13.0185 51.3071 13.1154C50.3653 12.6304 49.3533 12.2775 47.7236 11.9047C47.4565 11.8436 47.2893 11.5773 47.3505 11.3099Z" fill="#231E54"/>
<path fill-rule="evenodd" clip-rule="evenodd" d="M66.5684 32.2466C64.8963 33.3822 63.5262 34.2482 62.0292 34.8738C60.6429 35.4531 59.1658 35.8193 57.2551 36.0228C57.6387 37.1977 58.0969 37.8515 58.7441 38.206C59.5167 38.6294 60.6856 38.7009 62.6575 38.4056C62.8578 38.3755 63.0561 38.4702 63.1587 38.6446C63.2617 38.8191 63.2481 39.0382 63.125 39.1988C62.0796 40.5603 61.6638 41.2274 60.9415 42.9004C60.9249 42.9388 60.9037 42.9749 60.8779 43.0077C60.7607 43.159 60.6482 43.3033 60.5396 43.4423C59.4449 44.8446 58.7791 45.6973 58.1459 47.4866C57.8026 48.7359 57.6848 49.7184 57.7708 50.4682C57.8552 51.2044 58.1316 51.696 58.5782 52.0244C59.0433 52.3663 59.7567 52.5789 60.8011 52.6087C61.7005 52.6342 62.8072 52.5236 64.1393 52.275C63.7083 51.3997 63.5424 50.7436 63.3981 49.7247C63.3713 49.5367 63.4543 49.35 63.6119 49.2437C63.7692 49.1374 63.9737 49.1302 64.1379 49.2252C65.618 50.0802 66.5661 50.4569 68.4927 50.9979C68.6943 51.0545 68.8386 51.2309 68.8539 51.4398C68.8691 51.6483 68.7519 51.844 68.5609 51.9294C67.3755 52.4584 66.6137 52.7374 65.4094 52.9705C65.6461 55.3079 66.5485 56.5625 67.5721 57.1607C68.6516 57.792 69.9837 57.7629 71.1032 57.3246C73.5532 55.6446 74.837 54.0364 75.8473 52.4104C76.2008 51.842 76.5166 51.2782 76.8411 50.6993C76.992 50.4301 77.1446 50.1574 77.3038 49.8796C77.8007 49.0126 78.3466 48.1195 79.055 47.2002C79.2139 46.994 79.5052 46.9457 79.7224 47.0893C79.9395 47.2333 80.0087 47.5203 79.8809 47.7471C77.9805 51.1203 77.2035 53.2707 77.3548 54.8637C77.4879 56.263 78.3575 57.3435 80.2011 58.5233C81.1862 56.0283 81.7513 53.8732 81.9579 51.6434C82.178 49.2689 81.9943 46.7851 81.4544 43.6873C81.0985 42.9752 80.7562 42.4893 80.2206 42.0795C79.6558 41.6475 78.8402 41.2731 77.4836 40.8612C77.4032 40.8371 77.3307 40.793 77.2721 40.7328C75.8741 39.3001 74.7794 38.3699 73.6654 37.6807C72.5538 36.9928 71.4008 36.5316 69.8681 36.0609C69.65 35.994 69.5053 35.7868 69.5179 35.5591C69.5659 34.6841 69.5527 34.0042 69.4692 33.4841C69.3855 32.963 69.2382 32.649 69.0574 32.4565C68.8856 32.2736 68.6327 32.1469 68.2166 32.1052C67.8075 32.0642 67.2708 32.1092 66.5684 32.2466ZM65.1201 52.0145C65.805 51.8863 66.3281 51.7467 66.8766 51.5494C66.0159 51.2683 65.3237 50.9833 64.5663 50.593C64.6835 51.066 64.846 51.4851 65.1201 52.0145ZM64.4385 53.2294C63.0151 53.5005 61.7939 53.6302 60.773 53.6011C59.6286 53.5687 58.6838 53.335 57.9896 52.8245C57.2769 52.3005 56.8932 51.5331 56.784 50.5814C56.6771 49.6466 56.8313 48.5174 57.1932 47.2059C57.1965 47.1946 57.1998 47.1837 57.2038 47.1728C57.6427 45.9277 58.1088 45.0826 58.6732 44.2696C56.9737 45.1375 55.4741 45.7083 54.0652 45.9731C52.0926 46.3442 50.3239 46.1118 48.4654 45.3113C48.4452 45.3024 48.4257 45.2925 48.4065 45.2809L48.4062 45.2806L48.4029 45.2786L48.3876 45.2696C48.3807 45.2657 48.3721 45.2604 48.3612 45.2544C48.3506 45.2481 48.3383 45.2408 48.3238 45.2326C48.2668 45.1998 48.1804 45.1511 48.0669 45.0886C47.8391 44.9634 47.5011 44.784 47.0648 44.5692C46.1919 44.1388 44.9263 43.5675 43.3632 43.0054C43.105 42.9123 42.9709 42.628 43.0636 42.3701C43.1566 42.1119 43.441 41.9778 43.6989 42.0705C45.3031 42.6475 46.603 43.2344 47.5038 43.678C47.9543 43.9001 48.3052 44.0865 48.5449 44.2179C48.6647 44.2838 48.7564 44.3358 48.819 44.3719C48.8481 44.3887 48.871 44.402 48.8872 44.4116C50.5665 45.1296 52.127 45.3272 53.8815 44.9972C55.6337 44.6675 57.6033 43.8075 60.095 42.3565C60.6353 41.1195 61.0312 40.3965 61.6433 39.5295C60.2311 39.655 59.1291 39.5494 58.2667 39.077C57.1528 38.4669 56.5645 37.3192 56.1279 35.7166C56.0892 35.5746 56.1156 35.4227 56.1997 35.3018C56.2841 35.181 56.4179 35.1039 56.5649 35.0913C58.6984 34.9096 60.2331 34.5481 61.6466 33.9575C63.0677 33.3633 64.3875 32.5296 66.093 31.3688C66.1476 31.3317 66.2089 31.3058 66.2734 31.2927C67.0606 31.1328 67.7416 31.0596 68.3156 31.117C68.9005 31.1756 69.4027 31.3737 69.7811 31.7766C70.1505 32.17 70.3495 32.7029 70.4498 33.3262C70.5352 33.8589 70.5544 34.4925 70.5276 35.2267C71.9305 35.6743 73.0716 36.1457 74.1878 36.8362C75.3726 37.5688 76.508 38.5357 77.8941 39.9486C79.2215 40.3584 80.1378 40.7659 80.8241 41.2909C81.5447 41.8421 81.9747 42.4946 82.3766 43.3119C82.3975 43.3539 82.412 43.399 82.42 43.4453C82.9781 46.6252 83.1794 49.2235 82.9467 51.7351C82.7136 54.2489 82.0479 56.6516 80.9005 59.4439C80.8459 59.5776 80.7353 59.6806 80.5983 59.7262C80.4613 59.7719 80.311 59.7557 80.1872 59.6815C77.9374 58.3399 76.5577 56.9717 76.3664 54.9577C76.3174 54.4433 76.3478 53.8964 76.4541 53.3075C75.409 54.916 74.0422 56.5222 71.6177 58.1757C71.5885 58.1959 71.5571 58.2124 71.524 58.226C70.1836 58.7682 68.494 58.85 67.0709 58.0181C65.7276 57.2329 64.7242 55.6956 64.4385 53.2294ZM41.2366 42.3363C37.1017 41.0959 31.7905 40.2611 26.7847 41.6911C21.7724 43.1232 18.6205 47.1486 18.0554 51.9747C17.4901 56.8029 19.5149 62.4811 24.9846 67.1533C25.1931 67.3314 25.2177 67.6449 25.0396 67.8535C24.8615 68.062 24.5481 68.0868 24.3395 67.9084C18.6556 63.0531 16.4598 57.0627 17.069 51.8592C17.6786 46.6534 21.0965 42.2837 26.5119 40.7364C31.7802 39.2312 37.3056 40.1204 41.522 41.3853C41.7848 41.4641 41.9338 41.7408 41.855 42.0036C41.7762 42.2662 41.4991 42.4151 41.2366 42.3363ZM63.3934 44.8393C63.402 44.5652 63.6315 44.35 63.9056 44.359C64.7957 44.3874 65.4852 44.4887 66.1291 44.7198C66.7716 44.9505 67.3374 45.2994 67.9905 45.7791C68.2116 45.9416 68.259 46.2525 68.0968 46.4733C67.9342 46.6944 67.6234 46.7417 67.4026 46.5795C66.7822 46.1237 66.3056 45.8383 65.7938 45.6546C65.2827 45.4712 64.7057 45.3782 63.8738 45.3514C63.5997 45.3428 63.3845 45.1134 63.3934 44.8393ZM69.3921 47.3075C69.5004 47.0556 69.7923 46.939 70.0443 47.0473C70.7745 47.3608 71.3373 47.6597 71.8385 48.049C72.3406 48.439 72.7601 48.9031 73.2248 49.5228C73.3894 49.7422 73.345 50.0534 73.1255 50.2179C72.906 50.3825 72.5949 50.3381 72.4304 50.1186C71.995 49.5383 71.6362 49.1494 71.2294 48.8332C70.8215 48.5167 70.3445 48.2569 69.6523 47.9596C69.4004 47.8514 69.2839 47.5594 69.3921 47.3075Z" fill="#231E54"/>
<path fill-rule="evenodd" clip-rule="evenodd" d="M39.0386 55.2513C38.5099 55.1474 37.8862 55.1643 36.9723 55.2788C36.7001 55.3129 36.4519 55.1202 36.4178 54.8481C36.3837 54.576 36.5763 54.3277 36.8484 54.2936C37.7889 54.1754 38.5414 54.1414 39.2302 54.2767C39.9337 54.4151 40.5319 54.722 41.1837 55.2189C41.4018 55.3851 41.4439 55.6966 41.2777 55.9147C41.1115 56.1329 40.8 56.1749 40.5819 56.0087C40.0131 55.5754 39.5527 55.3523 39.0386 55.2513ZM32.8987 55.917C33.0055 56.1696 32.8874 56.4609 32.6348 56.5678C31.8687 56.8916 31.4219 57.1925 31.0983 57.5378C30.7702 57.888 30.5371 58.316 30.2458 58.9625C30.1331 59.2128 29.8392 59.324 29.5891 59.2115C29.3391 59.0986 29.2277 58.8046 29.3404 58.5547C29.6391 57.8916 29.9268 57.3355 30.3736 56.8588C30.8249 56.3772 31.4072 56.0084 32.248 55.6529C32.5006 55.5463 32.7919 55.6644 32.8987 55.917ZM45.1442 55.9604C45.4097 56.0286 45.5699 56.299 45.5017 56.5649C44.9638 58.6603 44.4374 60.3747 43.6343 61.6999C42.8143 63.0521 41.7117 63.991 40.0631 64.5521C38.7152 65.0112 37.0745 65.2112 35.0532 65.2012C35.0427 65.2035 35.0331 65.2055 35.0248 65.2069C35.0125 65.2088 35.0019 65.2105 34.993 65.2115C34.9841 65.2125 34.9761 65.2128 34.9692 65.2135C34.9559 65.2141 34.9447 65.2145 34.9364 65.2145C34.9278 65.2145 34.9202 65.2141 34.9139 65.2141C34.9016 65.2135 34.891 65.2128 34.8824 65.2121C32.4258 65.0056 30.5366 64.7421 29.0045 64.1164C27.4437 63.4792 26.2791 62.4781 25.2378 60.862C25.0892 60.6316 25.1557 60.3241 25.3862 60.1758C25.6167 60.0272 25.924 60.0937 26.0726 60.3241C27.0182 61.7916 28.0313 62.6463 29.3799 63.1971C30.7133 63.7417 32.398 63.9996 34.7338 64.2025C35.2254 63.6907 35.5915 63.1935 35.8911 62.6784C35.0288 62.069 34.2985 61.393 33.4742 60.63C33.3511 60.5161 33.2259 60.4002 33.0982 60.2827C32.9411 60.138 32.894 59.909 32.9814 59.714C33.0688 59.5193 33.271 59.4022 33.4835 59.423C34.4564 59.5197 35.142 59.5111 35.7547 59.3932C36.3651 59.276 36.9348 59.0443 37.6694 58.6517C37.8521 58.554 38.0766 58.5802 38.2318 58.7172C38.3874 58.8546 38.4414 59.0738 38.3672 59.2674C38.2242 59.6405 38.0941 60.0003 37.968 60.3492C37.7158 61.0477 37.4787 61.7032 37.1841 62.3374C37.9233 62.7804 38.7843 63.1799 39.8989 63.557C41.2323 63.0694 42.1086 62.3004 42.7849 61.1851C43.5039 59.9993 44.0011 58.4163 44.5397 56.3179C44.6079 56.0524 44.8783 55.8922 45.1442 55.9604ZM38.2381 63.9853C37.6734 63.7414 37.1765 63.4868 36.7236 63.2183C36.5307 63.5457 36.3122 63.8695 36.0569 64.1939C36.864 64.1657 37.587 64.0966 38.2381 63.9853ZM36.3456 61.7823C36.5823 61.251 36.7875 60.6856 37.016 60.0569L37.0166 60.055C36.6624 60.193 36.3118 60.2976 35.9421 60.3688C35.5736 60.4393 35.1933 60.4754 34.7795 60.4813C35.3035 60.9577 35.8014 61.3874 36.3456 61.7823Z" fill="#231E54"/>
<path fill-rule="evenodd" clip-rule="evenodd" d="M45.7033 67.3063C45.3014 67.733 44.8823 68.5592 44.3262 70.0244C44.2289 70.2809 43.9422 70.4097 43.686 70.3124C43.4294 70.2151 43.3006 69.9284 43.398 69.6722C43.9478 68.2232 44.4248 67.2149 44.9806 66.6253C45.272 66.3161 45.6 66.1043 45.9837 66.0112C46.3614 65.9199 46.7464 65.955 47.1343 66.0579C47.1436 66.0606 47.1529 66.0632 47.1622 66.0662C47.5508 66.1943 47.9037 66.3668 48.2029 66.6353C48.5048 66.9064 48.7243 67.25 48.8835 67.6793C49.1911 68.5073 49.2953 69.7162 49.3241 71.4955C49.3284 71.7696 49.11 71.9954 48.8355 72C48.5614 72.0043 48.3357 71.7858 48.331 71.5114C48.3019 69.7159 48.1927 68.6714 47.9527 68.0249C47.8381 67.7171 47.7004 67.5188 47.5395 67.3744C47.378 67.2295 47.1665 67.1146 46.8655 67.0143C46.5842 66.9411 46.3803 66.9372 46.2174 66.9765C46.0575 67.0153 45.891 67.107 45.7033 67.3063ZM28.9728 66.4926C29.1807 66.3138 29.4942 66.3373 29.673 66.5452C30.9859 68.0716 31.8037 69.4623 33.1266 71.7117C33.3087 72.0209 33.5 72.3466 33.7036 72.6909C34.0658 72.39 34.4504 72.2026 34.8997 72.146C35.5144 72.0689 36.1695 72.2509 36.917 72.5273C37.1742 72.6227 37.3056 72.908 37.2106 73.1652C37.1153 73.4225 36.8299 73.5539 36.5727 73.4589C35.8318 73.1848 35.3777 73.0868 35.0235 73.1315C34.7414 73.1669 34.4637 73.3023 34.1118 73.6664C34.1571 74.2974 34.1664 74.8452 34.1154 75.2915C34.0608 75.7692 33.9251 76.2465 33.5666 76.5448C33.1789 76.8672 32.6857 76.8616 32.2136 76.7288C31.7406 76.5961 31.1789 76.3081 30.5224 75.8966C30.5128 75.8907 30.5034 75.884 30.4943 75.8774C29.0556 74.832 27.9522 73.8627 26.9701 72.5869C25.9914 71.3154 25.1495 69.7602 24.2058 67.5615C24.0976 67.3092 24.2142 67.0173 24.4662 66.9093C24.7183 66.8011 25.0102 66.9176 25.1184 67.1695C26.0466 69.3325 26.8502 70.8026 27.7571 71.9811C28.6579 73.1513 29.6768 74.0547 31.0644 75.0641C31.6914 75.4563 32.1516 75.6801 32.4823 75.7728C32.8164 75.8668 32.9091 75.8 32.9314 75.7814C32.9829 75.7384 33.0812 75.5947 33.1289 75.1786C33.1717 74.8032 33.164 74.2967 33.114 73.6439C32.8017 73.1182 32.519 72.6379 32.2579 72.194C30.9375 69.9499 30.1706 68.6466 28.9201 67.1927C28.7413 66.9848 28.7649 66.6713 28.9728 66.4926Z" fill="#231E54"/>
</svg>
